<svg width="18" height="18" viewBox="0 0 18 18" fill="none" xmlns="http://www.w3.org/2000/svg">
<mask id="mask0_626_3540" style="mask-type:alpha" maskUnits="userSpaceOnUse" x="0" y="0" width="18" height="18">
<rect width="18" height="18" fill="#D9D9D9"/>
</mask>
<g mask="url(#mask0_626_3540)">
<path d="M8.12386 13.2477C6.4836 13.2477 5.09452 12.6789 3.95662 11.5411C2.81887 10.4032 2.25 9.01412 2.25 7.37386C2.25 5.7336 2.81887 4.34452 3.95662 3.20662C5.09452 2.06887 6.4836 1.5 8.12386 1.5C9.76412 1.5 11.1532 2.06887 12.2911 3.20662C13.4289 4.34452 13.9977 5.7336 13.9977 7.37386C13.9977 8.05984 13.8826 8.715 13.6524 9.33934C13.422 9.96368 13.1148 10.5067 12.7305 10.9684L16.2958 14.7978C16.4288 14.9306 16.4969 15.0978 16.4999 15.2992C16.5029 15.5005 16.4349 15.6708 16.2958 15.8099C16.1567 15.949 15.9879 16.0186 15.7896 16.0186C15.5914 16.0186 15.4228 15.949 15.2836 15.8099L11.7184 11.9805C11.2381 12.3771 10.6858 12.6874 10.0615 12.9115C9.43714 13.1357 8.79127 13.2477 8.12386 13.2477ZM8.12386 11.8072C9.3615 11.8072 10.4098 11.3777 11.2686 10.5186C12.1277 9.65976 12.5572 8.6115 12.5572 7.37386C12.5572 6.13622 12.1277 5.08797 11.2686 4.2291C10.4098 3.37007 9.3615 2.94055 8.12386 2.94055C6.88622 2.94055 5.83797 3.37007 4.9791 4.2291C4.12007 5.08797 3.69055 6.13622 3.69055 7.37386C3.69055 8.6115 4.12007 9.65976 4.9791 10.5186C5.83797 11.3777 6.88622 11.8072 8.12386 11.8072Z" fill="#6E757D"/>
</g>
</svg>
