<svg width="42" height="42" viewBox="0 0 42 42" fill="none" xmlns="http://www.w3.org/2000/svg">
<mask id="mask0_518_8966" style="mask-type:alpha" maskUnits="userSpaceOnUse" x="0" y="0" width="42" height="42">
<rect width="42" height="42" fill="#D9D9D9"/>
</mask>
<g mask="url(#mask0_518_8966)">
<path d="M29.0973 22.3128H9.1875C8.81504 22.3128 8.50325 22.187 8.25212 21.9356C8.00071 21.6845 7.875 21.3727 7.875 21.0003C7.875 20.6278 8.00071 20.316 8.25212 20.0649C8.50325 19.8135 8.81504 19.6878 9.1875 19.6878H29.0973L20.0511 10.6416C19.7909 10.3814 19.6624 10.0769 19.6656 9.72807C19.6691 9.37923 19.8065 9.06905 20.0778 8.79751C20.3493 8.54405 20.6567 8.4128 21 8.40376C21.3433 8.39472 21.6507 8.52597 21.9223 8.79751L33.0177 19.8929C33.1816 20.0569 33.2971 20.2297 33.3642 20.4114C33.4316 20.5931 33.4653 20.7894 33.4653 21.0003C33.4653 21.2111 33.4316 21.4074 33.3642 21.5891C33.2971 21.7708 33.1816 21.9437 33.0177 22.1076L21.9223 33.203C21.6799 33.4454 21.3798 33.5693 21.0219 33.5749C20.664 33.5804 20.3493 33.4565 20.0778 33.203C19.8065 32.9315 19.6709 32.6197 19.6709 32.2676C19.6709 31.9153 19.8065 31.6034 20.0778 31.3318L29.0973 22.3128Z" fill="#4774B9"/>
</g>
</svg>
