<svg width="42" height="42" viewBox="0 0 42 42" fill="none" xmlns="http://www.w3.org/2000/svg">
<rect opacity="0.6" width="42" height="42" fill="black"/>
<mask id="mask0_503_6647" style="mask-type:alpha" maskUnits="userSpaceOnUse" x="7" y="7" width="28" height="28">
<rect width="28" height="28" transform="matrix(-1 0 0 1 35 7)" fill="#D9D9D9"/>
</mask>
<g mask="url(#mask0_503_6647)">
<path d="M15.6018 21.8745H28.875C29.1233 21.8745 29.3312 21.7907 29.4986 21.6231C29.6662 21.4557 29.75 21.2478 29.75 20.9995C29.75 20.7512 29.6662 20.5434 29.4986 20.3759C29.3312 20.2083 29.1233 20.1245 28.875 20.1245H15.6018L21.6326 14.0937C21.8061 13.9203 21.8917 13.7173 21.8896 13.4847C21.8872 13.2522 21.7957 13.0454 21.6148 12.8644C21.4338 12.6954 21.2289 12.6079 21 12.6019C20.7711 12.5958 20.5662 12.6833 20.3852 12.8644L12.9882 20.2613C12.8789 20.3706 12.8019 20.4858 12.7572 20.6069C12.7123 20.7281 12.6898 20.8589 12.6898 20.9995C12.6898 21.1401 12.7123 21.271 12.7572 21.3921C12.8019 21.5132 12.8789 21.6285 12.9882 21.7377L20.3852 29.1347C20.5468 29.2963 20.7468 29.3789 20.9854 29.3826C21.224 29.3863 21.4338 29.3037 21.6148 29.1347C21.7957 28.9537 21.8861 28.7458 21.8861 28.5111C21.8861 28.2762 21.7957 28.0683 21.6148 27.8872L15.6018 21.8745Z" fill="white"/>
</g>
</svg>
