<svg width="30" height="30" viewBox="0 0 30 30" fill="none" xmlns="http://www.w3.org/2000/svg">
<mask id="mask0_503_7204" style="mask-type:alpha" maskUnits="userSpaceOnUse" x="0" y="0" width="30" height="30">
<rect width="30" height="30" transform="matrix(-1 0 0 1 30 0)" fill="#D9D9D9"/>
</mask>
<g mask="url(#mask0_503_7204)">
<path d="M9.21625 15.9373H23.4375C23.7035 15.9373 23.9263 15.8475 24.1056 15.6679C24.2852 15.4885 24.375 15.2658 24.375 14.9998C24.375 14.7337 24.2852 14.511 24.1056 14.3316C23.9263 14.1521 23.7035 14.0623 23.4375 14.0623H9.21625L15.6778 7.6007C15.8636 7.41487 15.9554 7.19737 15.9531 6.9482C15.9506 6.69903 15.8525 6.47747 15.6587 6.28352C15.4648 6.10247 15.2452 6.00872 15 6.00227C14.7548 5.99581 14.5352 6.08956 14.3412 6.28352L6.41593 14.2088C6.29885 14.3259 6.21635 14.4493 6.16843 14.5791C6.12031 14.7089 6.09625 14.8491 6.09625 14.9998C6.09625 15.1504 6.12031 15.2906 6.16843 15.4204C6.21635 15.5502 6.29885 15.6736 6.41593 15.7907L14.3412 23.716C14.5144 23.8891 14.7287 23.9777 14.9844 23.9816C15.24 23.9856 15.4648 23.8971 15.6587 23.716C15.8525 23.5221 15.9494 23.2993 15.9494 23.0479C15.9494 22.7962 15.8525 22.5734 15.6587 22.3795L9.21625 15.9373Z" fill="#4774B9"/>
</g>
</svg>
