<svg width="38" height="38" viewBox="0 0 38 38" fill="none" xmlns="http://www.w3.org/2000/svg">
<mask id="mask0_570_4938" style="mask-type:alpha" maskUnits="userSpaceOnUse" x="0" y="0" width="38" height="38">
<rect width="38" height="38" fill="#D9D9D9"/>
</mask>
<g mask="url(#mask0_570_4938)">
<path d="M26.3261 20.1863H8.3125C7.97551 20.1863 7.69342 20.0726 7.46621 19.8451C7.23874 19.6179 7.125 19.3358 7.125 18.9988C7.125 18.6618 7.23874 18.3797 7.46621 18.1525C7.69342 17.925 7.97551 17.8113 8.3125 17.8113H26.3261L18.1414 9.62664C17.9061 9.39126 17.7898 9.11575 17.7927 8.80014C17.7959 8.48453 17.9202 8.20389 18.1656 7.95821C18.4113 7.72889 18.6894 7.61014 19 7.60196C19.3106 7.59378 19.5887 7.71253 19.8344 7.95821L29.8732 17.9969C30.0215 18.1452 30.126 18.3016 30.1866 18.466C30.2476 18.6304 30.2781 18.808 30.2781 18.9988C30.2781 19.1896 30.2476 19.3672 30.1866 19.5316C30.126 19.696 30.0215 19.8523 29.8732 20.0006L19.8344 30.0394C19.6151 30.2587 19.3436 30.3708 19.0198 30.3758C18.696 30.3808 18.4113 30.2687 18.1656 30.0394C17.9202 29.7937 17.7975 29.5116 17.7975 29.1931C17.7975 28.8743 17.9202 28.5921 18.1656 28.3464L26.3261 20.1863Z" fill="white"/>
</g>
</svg>
