<svg width="20" height="20" viewBox="0 0 20 20" fill="none" xmlns="http://www.w3.org/2000/svg">
<mask id="mask0_529_22790" style="mask-type:alpha" maskUnits="userSpaceOnUse" x="0" y="0" width="20" height="20">
<rect width="20" height="20" fill="#D9D9D9"/>
</mask>
<g mask="url(#mask0_529_22790)">
<path d="M9.99914 17.0827C9.82192 17.0827 9.67352 17.0228 9.55393 16.9029C9.43421 16.7832 9.37435 16.6348 9.37435 16.4577V10.6243H3.54102C3.36393 10.6243 3.21553 10.5644 3.09581 10.4446C2.97595 10.3247 2.91602 10.1762 2.91602 9.99914C2.91602 9.82192 2.97595 9.67352 3.09581 9.55393C3.21553 9.43421 3.36393 9.37435 3.54102 9.37435H9.37435V3.54102C9.37435 3.36393 9.43428 3.21553 9.55414 3.09581C9.674 2.97595 9.82247 2.91602 9.99956 2.91602C10.1768 2.91602 10.3252 2.97595 10.4448 3.09581C10.5645 3.21553 10.6243 3.36393 10.6243 3.54102V9.37435H16.4577C16.6348 9.37435 16.7832 9.43428 16.9029 9.55414C17.0228 9.674 17.0827 9.82247 17.0827 9.99956C17.0827 10.1768 17.0228 10.3252 16.9029 10.4448C16.7832 10.5645 16.6348 10.6243 16.4577 10.6243H10.6243V16.4577C10.6243 16.6348 10.5644 16.7832 10.4446 16.9029C10.3247 17.0228 10.1762 17.0827 9.99914 17.0827Z" fill="#6E757D"/>
</g>
</svg>
