<svg width="20" height="20" viewBox="0 0 20 20" fill="none" xmlns="http://www.w3.org/2000/svg">
<mask id="mask0_529_22970" style="mask-type:alpha" maskUnits="userSpaceOnUse" x="0" y="0" width="20" height="20">
<rect width="20" height="20" fill="#D9D9D9"/>
</mask>
<g mask="url(#mask0_529_22970)">
<path d="M5.20898 10.625C5.0319 10.625 4.8835 10.5651 4.76378 10.4452C4.64392 10.3253 4.58398 10.1769 4.58398 9.99979C4.58398 9.82257 4.64392 9.67417 4.76378 9.55458C4.8835 9.43486 5.0319 9.375 5.20898 9.375H14.7923C14.9694 9.375 15.1178 9.43493 15.2375 9.55479C15.3574 9.67465 15.4173 9.82313 15.4173 10.0002C15.4173 10.1774 15.3574 10.3258 15.2375 10.4454C15.1178 10.5651 14.9694 10.625 14.7923 10.625H5.20898Z" fill="white"/>
</g>
</svg>
