<svg width="68" height="68" viewBox="0 0 68 68" fill="none" xmlns="http://www.w3.org/2000/svg">
<path d="M11 9C11 9 12.057 34.2237 11.2065 44.344C11.2065 44.344 15.2947 44.3862 17.4933 44.3862C19.6919 44.3862 22.6792 44.3586 24.9558 46.6416C28.9627 50.6641 33.8672 51.3521 36.2674 51.9525C38.479 52.5009 40.5638 54.0376 40.8695 54.2777C42.1233 55.2464 43.6454 55.7348 45.2033 55.9425C46.6684 56.1372 48.1824 55.9279 49.6248 56.2135C51.0347 56.491 52.36 57.0783 53.7585 57.3948C54.5228 57.57 55.2563 57.742 55.9913 58C56.0726 57.0524 55.5685 55.8598 55.1814 55.0046C54.0008 52.3906 52.2966 50.0329 51.3177 47.3264C50.5208 45.1212 50.5599 42.749 50.8249 40.4529C50.9501 39.3479 51.0672 38.2413 51.1941 37.1444C51.225 36.8734 51.9145 33.8846 52.0299 33.9543C50.1582 32.7877 49.5289 33.6931 47.6685 32.6789C46.2863 31.9277 45.3496 27.5255 41.9103 26.0327C39.4791 24.978 36.4577 26.7288 34.1095 25.2571C32.4329 24.2072 32.9403 19.0505 23.6858 14.3968C22.2515 13.6732 18.9438 12.6185 17.786 12.2274C16.6249 11.8412 13.2506 10.7541 11 9Z" fill="#4774B9"/>
</svg>
