<svg width="34" height="34" viewBox="0 0 34 34" fill="none" xmlns="http://www.w3.org/2000/svg">
<mask id="mask0_764_28363" style="mask-type:alpha" maskUnits="userSpaceOnUse" x="0" y="0" width="34" height="34">
<rect width="34" height="34" fill="#D9D9D9"/>
</mask>
<g mask="url(#mask0_764_28363)">
<path d="M6.02075 24.7913C5.71971 24.7913 5.46743 24.6895 5.2639 24.4857C5.06013 24.2819 4.95825 24.0295 4.95825 23.7285C4.95825 23.4272 5.06013 23.1749 5.2639 22.9716C5.46743 22.7681 5.71971 22.6663 6.02075 22.6663H11.5103C11.8114 22.6663 12.0637 22.7682 12.2672 22.972C12.471 23.1758 12.5728 23.4282 12.5728 23.7292C12.5728 24.0305 12.471 24.2828 12.2672 24.486C12.0637 24.6896 11.8114 24.7913 11.5103 24.7913H6.02075ZM6.02075 18.0622C5.71971 18.0622 5.46743 17.9603 5.2639 17.7565C5.06013 17.5528 4.95825 17.3004 4.95825 16.9993C4.95825 16.698 5.06013 16.4458 5.2639 16.2425C5.46743 16.0389 5.71971 15.9372 6.02075 15.9372H19.738C20.039 15.9372 20.2913 16.0391 20.4948 16.2428C20.6986 16.4466 20.8005 16.699 20.8005 17C20.8005 17.3013 20.6986 17.5536 20.4948 17.7569C20.2913 17.9604 20.039 18.0622 19.738 18.0622H6.02075ZM6.02075 11.333C5.71971 11.333 5.46743 11.2311 5.2639 11.0274C5.06013 10.8236 4.95825 10.5712 4.95825 10.2702C4.95825 9.96888 5.06013 9.71659 5.2639 9.5133C5.46743 9.30977 5.71971 9.20801 6.02075 9.20801H27.9791C28.2801 9.20801 28.5324 9.30989 28.7359 9.51365C28.9397 9.71742 29.0416 9.96982 29.0416 10.2709C29.0416 10.5721 28.9397 10.8244 28.7359 11.0277C28.5324 11.2312 28.2801 11.333 27.9791 11.333H6.02075Z" fill="black"/>
</g>
</svg>
