<svg width="50" height="26" viewBox="0 0 50 26" fill="none" xmlns="http://www.w3.org/2000/svg">
<mask id="mask0_504_14614" style="mask-type:alpha" maskUnits="userSpaceOnUse" x="0" y="0" width="50" height="26">
<rect width="50" height="26" fill="#D9D9D9"/>
</mask>
<g mask="url(#mask0_504_14614)">
<path d="M25.5 23C24.1239 23 22.8276 22.7369 21.6111 22.2106C20.3946 21.6841 19.3352 20.9696 18.4328 20.0672C17.5304 19.1648 16.8159 18.1054 16.2894 16.8889C15.7631 15.6724 15.5 14.3761 15.5 13C15.5 11.6196 15.7631 10.3222 16.2894 9.10778C16.8159 7.89352 17.5304 6.83519 18.4328 5.93278C19.3352 5.03037 20.3946 4.31593 21.6111 3.78944C22.8276 3.26315 24.1239 3 25.5 3C26.8804 3 28.1778 3.26315 29.3922 3.78944C30.6065 4.31593 31.6648 5.03037 32.5672 5.93278C33.4696 6.83519 34.1841 7.89352 34.7106 9.10778C35.2369 10.3222 35.5 11.6196 35.5 13C35.5 14.3761 35.2369 15.6724 34.7106 16.8889C34.1841 18.1054 33.4696 19.1648 32.5672 20.0672C31.6648 20.9696 30.6065 21.6841 29.3922 22.2106C28.1778 22.7369 26.8804 23 25.5 23ZM25.5 21.8975C26.1524 21.0599 26.6902 20.2372 27.1133 19.4294C27.5363 18.6219 27.8803 17.7181 28.1453 16.7181H22.8547C23.1482 17.7749 23.4994 18.7072 23.9081 19.515C24.3169 20.3226 24.8476 21.1168 25.5 21.8975ZM24.0856 21.7308C23.567 21.1197 23.0937 20.3644 22.6656 19.4647C22.2376 18.5651 21.9189 17.6495 21.7094 16.7181H17.4486C18.0855 18.0997 18.9882 19.2329 20.1569 20.1175C21.3258 21.0021 22.6354 21.5399 24.0856 21.7308ZM26.9144 21.7308C28.3646 21.5399 29.6742 21.0021 30.8431 20.1175C32.0118 19.2329 32.9145 18.0997 33.5514 16.7181H29.2906C29.01 17.6638 28.6556 18.5865 28.2275 19.4861C27.7995 20.3857 27.3619 21.134 26.9144 21.7308ZM16.9958 15.6069H21.4786C21.3945 15.151 21.3351 14.7069 21.3003 14.2744C21.2653 13.8422 21.2478 13.4174 21.2478 13C21.2478 12.5826 21.2653 12.1578 21.3003 11.7256C21.3351 11.2931 21.3945 10.849 21.4786 10.3931H16.9958C16.8747 10.7777 16.7803 11.1969 16.7125 11.6506C16.6449 12.1043 16.6111 12.5541 16.6111 13C16.6111 13.4459 16.6449 13.8957 16.7125 14.3494C16.7803 14.8031 16.8747 15.2223 16.9958 15.6069ZM22.5897 15.6069H28.4103C28.4944 15.151 28.5538 14.714 28.5886 14.2958C28.6236 13.8779 28.6411 13.4459 28.6411 13C28.6411 12.5541 28.6236 12.1221 28.5886 11.7042C28.5538 11.286 28.4944 10.849 28.4103 10.3931H22.5897C22.5056 10.849 22.4462 11.286 22.4114 11.7042C22.3764 12.1221 22.3589 12.5541 22.3589 13C22.3589 13.4459 22.3764 13.8779 22.4114 14.2958C22.4462 14.714 22.5056 15.151 22.5897 15.6069ZM29.5214 15.6069H34.0042C34.1253 15.2223 34.2197 14.8031 34.2875 14.3494C34.3551 13.8957 34.3889 13.4459 34.3889 13C34.3889 12.5541 34.3551 12.1043 34.2875 11.6506C34.2197 11.1969 34.1253 10.7777 34.0042 10.3931H29.5214C29.6055 10.849 29.6649 11.2931 29.6997 11.7256C29.7347 12.1578 29.7522 12.5826 29.7522 13C29.7522 13.4174 29.7347 13.8422 29.6997 14.2744C29.6649 14.7069 29.6055 15.151 29.5214 15.6069ZM29.2906 9.28195H33.5514C32.9003 7.87176 32.0081 6.73861 30.875 5.8825C29.7419 5.02639 28.4217 4.48148 26.9144 4.24778C27.433 4.93018 27.8992 5.71046 28.3131 6.58861C28.7269 7.46694 29.0528 8.36472 29.2906 9.28195ZM22.8547 9.28195H28.1453C27.8518 8.23935 27.4899 7.29639 27.0597 6.45306C26.6295 5.60972 26.1096 4.8262 25.5 4.1025C24.8904 4.8262 24.3705 5.60972 23.9403 6.45306C23.5101 7.29639 23.1482 8.23935 22.8547 9.28195ZM17.4486 9.28195H21.7094C21.9472 8.36472 22.2731 7.46694 22.6869 6.58861C23.1008 5.71046 23.567 4.93018 24.0856 4.24778C22.5641 4.48148 21.2404 5.02991 20.1144 5.89306C18.9883 6.75639 18.0997 7.88602 17.4486 9.28195Z" fill="black"/>
</g>
</svg>
