<svg width="68" height="68" viewBox="0 0 68 68" fill="none" xmlns="http://www.w3.org/2000/svg">
<path d="M43.1016 23.8262L48.5391 24.3125L53.6143 25.0371L60.4238 25.8184L52.5273 26.125L47.8145 27.2119L48.5391 33.0127V60.5645L41.7471 61L35.3076 60.5645L28.2822 60.1309L22.0752 60.5645V54.4014H18.8125L13.7373 52.9512L11.9248 51.501V44.6133L13.7373 41.3506L20.625 37.7256L21.3506 28.2998H7L8.4502 27.2119L23.4287 25.0371L25.9395 8.3623H30.29L38.751 8L43.1016 23.8262ZM28.7012 34.1006L27.8486 42.0762L28.7012 53.6768L29.8369 54.04L30.9736 53.3145L31.8262 45.3398L30.9736 33.7383L29.8369 33.376L28.7012 34.1006ZM38.5654 33.376L37.4287 34.1006L36.5762 42.0762L37.4287 53.6768L38.5654 54.04L39.7021 53.3145L40.5537 45.3398L39.7021 33.7383L38.5654 33.376ZM16.2324 43.5771L15.5498 46.2773V49.877L17.9385 50.7773H21.3506V42.9766L20.668 42.0771L16.2324 43.5771Z" fill="#4774B9"/>
</svg>
