<svg width="68" height="68" viewBox="0 0 68 68" fill="none" xmlns="http://www.w3.org/2000/svg">
<path d="M36.5 9.00012L41.5 8L46 9.00012L48 11.5L48.5 14.5L48 18.5L46 21.5L44.8571 22.5L43.6667 22.7387L44.619 25.338L44.8571 26.7704L47.9524 28.2028L51.5238 26.0542L53.9048 24.8605L56.0476 26.0542L57 28.2028L54.619 31.7839L51.5238 34.41L44.381 33.4551L41.7619 42.2884L48.4286 46.1082L51.0476 51.3605L52 58.5226L46.0476 59.0001L44.619 56.6127L42.4762 50.6443L39.619 47.7794L34.8571 46.1082L30.3333 52.7929L26.0476 55.6578L19.619 57.329L13.1905 56.6127L12 54.4641L13.1905 51.838L17 51.3605L22.4762 50.6443L25.3333 47.7794L28.1905 42.2884L32.7143 31.7839L31.0476 31.0677H27.2381L26.0476 32.9776L22.9524 35.365L18.6667 34.41V31.0677L21.5238 26.5317L32.7143 24.383L37 22.9506L34.5 21.5001L32.5 16.5001L33 12.5001L36.5 9.00012Z" fill="#4774B9"/>
</svg>
