<svg width="34" height="34" viewBox="0 0 34 34" fill="none" xmlns="http://www.w3.org/2000/svg">
<mask id="mask0_758_28180" style="mask-type:alpha" maskUnits="userSpaceOnUse" x="0" y="0" width="34" height="34">
<rect width="34" height="34" fill="#D9D9D9"/>
</mask>
<g mask="url(#mask0_758_28180)">
<path d="M16.9999 18.4927L9.81314 25.6798C9.61694 25.8758 9.37032 25.9761 9.07329 25.9809C8.7765 25.9853 8.52539 25.885 8.31998 25.6798C8.1148 25.4744 8.01221 25.2255 8.01221 24.9332C8.01221 24.6409 8.1148 24.3921 8.31998 24.1866L15.5071 16.9999L8.31998 9.81315C8.12401 9.61694 8.02366 9.37032 8.01894 9.07329C8.01445 8.7765 8.1148 8.52539 8.31998 8.31998C8.52539 8.1148 8.77426 8.01221 9.06656 8.01221C9.35887 8.01221 9.60773 8.1148 9.81314 8.31998L16.9999 15.5071L24.1866 8.31998C24.3829 8.12401 24.6295 8.02366 24.9265 8.01894C25.2233 8.01445 25.4744 8.1148 25.6798 8.31998C25.885 8.52539 25.9876 8.77426 25.9876 9.06656C25.9876 9.35887 25.885 9.60773 25.6798 9.81315L18.4927 16.9999L25.6798 24.1866C25.8758 24.3829 25.9761 24.6295 25.9809 24.9265C25.9853 25.2233 25.885 25.4744 25.6798 25.6798C25.4744 25.885 25.2255 25.9876 24.9332 25.9876C24.6409 25.9876 24.3921 25.885 24.1866 25.6798L16.9999 18.4927Z" fill="white"/>
</g>
</svg>
