<svg width="42" height="42" viewBox="0 0 42 42" fill="none" xmlns="http://www.w3.org/2000/svg">
<rect opacity="0.6" width="42" height="42" fill="black"/>
<mask id="mask0_503_6652" style="mask-type:alpha" maskUnits="userSpaceOnUse" x="7" y="7" width="28" height="28">
<rect x="7" y="7" width="28" height="28" fill="#D9D9D9"/>
</mask>
<g mask="url(#mask0_503_6652)">
<path d="M26.3982 21.8745H13.125C12.8767 21.8745 12.6688 21.7907 12.5014 21.6231C12.3338 21.4557 12.25 21.2478 12.25 20.9995C12.25 20.7512 12.3338 20.5434 12.5014 20.3759C12.6688 20.2083 12.8767 20.1245 13.125 20.1245H26.3982L20.3674 14.0937C20.1939 13.9203 20.1083 13.7173 20.1104 13.4847C20.1128 13.2522 20.2043 13.0454 20.3852 12.8644C20.5662 12.6954 20.7711 12.6079 21 12.6019C21.2289 12.5958 21.4338 12.6833 21.6148 12.8644L29.0118 20.2613C29.1211 20.3706 29.1981 20.4858 29.2428 20.6069C29.2877 20.7281 29.3102 20.8589 29.3102 20.9995C29.3102 21.1401 29.2877 21.271 29.2428 21.3921C29.1981 21.5132 29.1211 21.6285 29.0118 21.7377L21.6148 29.1347C21.4532 29.2963 21.2532 29.3789 21.0146 29.3826C20.776 29.3863 20.5662 29.3037 20.3852 29.1347C20.2043 28.9537 20.1139 28.7458 20.1139 28.5111C20.1139 28.2762 20.2043 28.0683 20.3852 27.8872L26.3982 21.8745Z" fill="white"/>
</g>
</svg>
