<svg width="30" height="30" viewBox="0 0 30 30" fill="none" xmlns="http://www.w3.org/2000/svg">
<mask id="mask0_503_7208" style="mask-type:alpha" maskUnits="userSpaceOnUse" x="0" y="0" width="30" height="30">
<rect width="30" height="30" fill="#D9D9D9"/>
</mask>
<g mask="url(#mask0_503_7208)">
<path d="M20.7838 15.9373H6.5625C6.29646 15.9373 6.07375 15.8475 5.89437 15.6679C5.71479 15.4885 5.625 15.2658 5.625 14.9998C5.625 14.7337 5.71479 14.511 5.89437 14.3316C6.07375 14.1521 6.29646 14.0623 6.5625 14.0623H20.7838L14.3222 7.6007C14.1364 7.41487 14.0446 7.19737 14.0469 6.9482C14.0494 6.69903 14.1475 6.47747 14.3413 6.28352C14.5352 6.10247 14.7548 6.00872 15 6.00227C15.2452 5.99581 15.4648 6.08956 15.6588 6.28352L23.5841 14.2088C23.7011 14.3259 23.7836 14.4493 23.8316 14.5791C23.8797 14.7089 23.9038 14.8491 23.9038 14.9998C23.9038 15.1504 23.8797 15.2906 23.8316 15.4204C23.7836 15.5502 23.7011 15.6736 23.5841 15.7907L15.6588 23.716C15.4856 23.8891 15.2713 23.9777 15.0156 23.9816C14.76 23.9856 14.5352 23.8971 14.3413 23.716C14.1475 23.5221 14.0506 23.2993 14.0506 23.0479C14.0506 22.7962 14.1475 22.5734 14.3413 22.3795L20.7838 15.9373Z" fill="#4774B9"/>
</g>
</svg>
