<svg width="20" height="20" viewBox="0 0 20 20" fill="none" xmlns="http://www.w3.org/2000/svg">
<rect width="20" height="20" fill="#4774B9"/>
<mask id="mask0_310_14418" style="mask-type:alpha" maskUnits="userSpaceOnUse" x="1" y="1" width="18" height="18">
<rect x="1" y="1" width="18" height="18" fill="#D9D9D9"/>
</mask>
<g mask="url(#mask0_310_14418)">
<path d="M8.16229 12.3625L14.5185 6.00625C14.6685 5.85625 14.8435 5.78125 15.0435 5.78125C15.2435 5.78125 15.4185 5.85625 15.5685 6.00625C15.7185 6.15625 15.7935 6.33438 15.7935 6.54063C15.7935 6.74688 15.7185 6.925 15.5685 7.075L8.68729 13.975C8.53729 14.125 8.36229 14.2 8.16229 14.2C7.96229 14.2 7.78729 14.125 7.63729 13.975L4.41229 10.75C4.26229 10.6 4.19041 10.4219 4.19666 10.2156C4.20291 10.0094 4.28104 9.83125 4.43104 9.68125C4.58104 9.53125 4.75916 9.45625 4.96541 9.45625C5.17166 9.45625 5.34979 9.53125 5.49979 9.68125L8.16229 12.3625Z" fill="white"/>
</g>
</svg>
