<svg width="41" height="45" viewBox="0 0 41 45" fill="none" xmlns="http://www.w3.org/2000/svg">
<path d="M0 0C0 0 0.963055 23.1646 0.188166 32.4588C0.188166 32.4588 3.91297 32.4975 5.91612 32.4975C7.91927 32.4975 10.641 32.4722 12.7153 34.5688C16.366 38.263 20.8346 38.8948 23.0215 39.4462C25.0365 39.9498 26.9359 41.361 27.2144 41.5816C28.3568 42.4712 29.7436 42.9197 31.163 43.1105C32.4979 43.2893 33.8773 43.0971 35.1915 43.3593C36.4761 43.6141 37.6836 44.1536 38.9578 44.4442C39.6541 44.6051 40.3224 44.7631 40.9921 45C41.0661 44.1297 40.6068 43.0345 40.2542 42.2492C39.1785 39.8485 37.6258 37.6833 36.7339 35.1977C36.0079 33.1726 36.0434 30.9939 36.2849 28.8854C36.399 27.8706 36.5057 26.8543 36.6213 25.8469C36.6494 25.5981 37.2776 22.8532 37.3828 22.9172C35.6775 21.8458 35.1041 22.6773 33.4091 21.746C32.1497 21.056 31.2963 17.0132 28.1627 15.6423C25.9477 14.6737 23.1948 16.2815 21.0553 14.93C19.5278 13.9658 19.9901 9.23008 11.5581 4.95629C10.2513 4.29167 7.23773 3.32307 6.18281 2.96394C5.12493 2.60928 2.05057 1.61087 0 0Z" fill="#4774B9"/>
</svg>
