<svg width="1200" height="48" viewBox="0 0 1200 48" fill="none" xmlns="http://www.w3.org/2000/svg">
<g clip-path="url(#clip0_487_5169)">
<path d="M294.307 8.02142L291.28 10.936C287.683 6.60283 282.275 3.97199 276.091 3.97199C264.939 3.97199 256.245 12.0451 256.245 24.0128C256.245 35.9806 264.913 44.0537 275.884 44.0537C286.855 44.0537 293.479 37.2702 294.075 26.5663H278.135V22.749H298.499C298.577 23.1875 298.577 23.497 298.577 23.8581C298.577 37.6313 289.831 47.9999 275.884 47.9999C263.334 47.9999 251.975 38.9467 251.975 24.0386C251.975 9.93007 262.403 0.0515137 276.091 0.0515137C283.491 0.0515137 290.012 3.06925 294.307 8.07301V8.02142Z" fill="#E1E4E7"/>
<path d="M352.682 8.02142L349.655 10.936C346.058 6.60283 340.65 3.97199 334.466 3.97199C323.288 3.97199 314.62 12.0451 314.62 24.0128C314.62 35.9806 323.288 44.0537 334.259 44.0537C345.23 44.0537 351.854 37.2702 352.45 26.5663H336.51V22.749H356.9C356.978 23.1875 356.978 23.497 356.978 23.8581C356.978 37.6313 348.232 47.9999 334.285 47.9999C321.735 47.9999 310.376 38.9467 310.376 24.0386C310.376 9.93007 320.804 0.0515137 334.492 0.0515137C341.892 0.0515137 348.413 3.06925 352.708 8.07301L352.682 8.02142Z" fill="#E1E4E7"/>
<path d="M403.916 47.4585H371.494V0.541748H403.683V4.38484H375.608V21.9238H402.881V25.7411H375.608V43.6154H403.916V47.4585Z" fill="#E1E4E7"/>
<path d="M452.329 47.4585H419.907V0.541748H452.096V4.38484H424.021V21.9238H451.294V25.7411H424.021V43.6154H452.329V47.4585Z" fill="#E1E4E7"/>
<path d="M478.644 25.8185H472.434V47.4585H468.346V0.541748H472.434V21.9238H478.722L499.396 0.541748H504.701L482.008 23.6261L506.124 47.4585H500.535L478.644 25.8185Z" fill="#E1E4E7"/>
<path d="M555.986 0.541748C565.767 0.541748 572.624 3.99795 572.624 12.7158C572.624 18.3902 569.389 21.9754 564.525 23.3166C569.907 24.6836 573.607 28.4235 573.607 34.6911C573.607 43.6412 566.983 47.4843 556.762 47.4843H537.795V0.541748H555.986ZM541.884 4.38484V21.6401H555.882C563.076 21.6401 568.354 19.6541 568.354 12.9996C568.354 6.34508 563.05 4.38484 555.857 4.38484H541.91H541.884ZM541.884 25.4832V43.6154H556.581C564.24 43.6154 569.286 41.3456 569.286 34.5364C569.286 27.7271 564.24 25.4832 556.581 25.4832H541.884Z" fill="#E1E4E7"/>
<path d="M620.571 47.4585H588.149V0.541748H620.338V4.38484H592.263V21.9238H619.536V25.7411H592.263V43.6154H620.571V47.4585Z" fill="#E1E4E7"/>
<path d="M668.984 47.4585H636.562V0.541748H668.751V4.38484H640.676V21.9238H667.949V25.7411H640.676V43.6154H668.984V47.4585Z" fill="#E1E4E7"/>
<path d="M702.933 0.541748C713.335 0.541748 719.182 5.26179 719.182 13.5928C719.182 21.9238 712.998 26.6696 702.984 26.6696H701.147L718.975 47.4843H713.852L696.308 26.6696H689.115V47.4843H685.027V0.541748H702.984H702.933ZM689.089 4.38484V22.9297H702.907C710.721 22.9297 714.939 19.6025 714.939 13.567C714.939 7.53154 710.643 4.38484 702.907 4.38484H689.089Z" fill="#E1E4E7"/>
<path d="M794.92 9.64643L791.478 11.9162C788.218 6.98979 782.474 3.94627 775.875 3.94627C764.697 3.94627 756.029 12.0193 756.029 23.9871C756.029 35.9549 764.697 44.0279 775.875 44.0279C782.422 44.0279 788.192 41.036 791.452 36.058L794.816 38.5083C790.909 44.3632 783.897 48 775.875 48C762.11 48 751.76 38.0699 751.76 23.9871C751.76 9.90435 762.11 0 775.875 0C783.949 0 791.168 3.68834 794.92 9.64643Z" fill="#E1E4E7"/>
<path d="M853.786 23.9871C853.786 38.0699 843.436 48 829.671 48C815.905 48 805.555 38.0699 805.555 23.9871C805.555 9.90435 815.905 0 829.671 0C843.436 0 853.786 9.93015 853.786 23.9871ZM809.85 23.9871C809.85 35.9549 818.518 44.0279 829.696 44.0279C840.875 44.0279 849.491 35.9549 849.491 23.9871C849.491 12.0193 840.823 3.94627 829.696 3.94627C818.57 3.94627 809.85 12.0193 809.85 23.9871Z" fill="#E1E4E7"/>
<path d="M916.793 47.4585H912.679V5.18441L894.721 41.8873H890.374L872.417 5.39075V47.4585H868.328V0.541748H874.513L892.574 37.1156L910.609 0.541748H916.793V47.4585Z" fill="#E1E4E7"/>
<path d="M938.296 28.3462V47.4585H934.181V0.541748H951.673C962.075 0.541748 968.311 5.67447 968.311 14.4439C968.311 23.2134 962.049 28.3462 951.673 28.3462H938.296ZM938.296 4.38484V24.4515H951.57C959.436 24.4515 964.042 21.0726 964.042 14.4182C964.042 7.76367 959.436 4.35905 951.57 4.35905H938.296V4.38484Z" fill="#E1E4E7"/>
<path d="M1018.17 47.4585H1013.77L1008.06 33.7368H983.578L977.859 47.4585H973.59L993.359 0.541748H998.404L1018.17 47.4585ZM985.208 29.8679H1006.4L995.817 4.51381L985.234 29.8679H985.208Z" fill="#E1E4E7"/>
<path d="M1068.53 47.4585H1064.83L1033.98 7.58312V47.4585H1029.84V0.541748H1033.54L1064.41 40.4429V0.541748H1068.53V47.4585Z" fill="#E1E4E7"/>
<path d="M1102.22 27.3402V47.4585H1098.1V27.2887L1079.32 0.541748H1084.23L1100.2 23.4971L1116.16 0.541748H1120.98L1102.22 27.366V27.3402Z" fill="#E1E4E7"/>
<path d="M44.9974 0.361084V47.8452H24.4782V20.144H0V0.361084H44.9974Z" fill="#E1E4E7"/>
<path d="M130.231 0.361084V47.8452H109.712V20.144H85.2337V0.361084H130.205H130.231Z" fill="#E1E4E7"/>
<path d="M187.545 47.8452V0.361084H208.039V47.8452H187.545Z" fill="#E1E4E7"/>
<path d="M1200 0.361084V47.8452H1179.51V20.144H1155.03V0.361084H1200Z" fill="#E1E4E7"/>
</g>
<defs>
<clipPath id="clip0_487_5169">
<rect width="1200" height="48" fill="white"/>
</clipPath>
</defs>
</svg>
